<mxfile host="app.diagrams.net" modified="2023-11-16T18:40:50.498Z" agent="Mozilla/5.0 (Windows NT 10.0; Win64; x64) AppleWebKit/537.36 (KHTML, like Gecko) Chrome/119.0.0.0 Safari/537.36" etag="oYjUcQz8ZDf0H1guDEaS" version="22.1.2" type="device" pages="2">
  <diagram id="0uNSTiFyO5Xx_1StXq3_" name="umlprogrammclasses">
    <mxGraphModel dx="830" dy="349" grid="1" gridSize="10" guides="1" tooltips="1" connect="1" arrows="1" fold="1" page="1" pageScale="1" pageWidth="827" pageHeight="1169" math="0" shadow="0">
      <root>
        <mxCell id="0" />
        <mxCell id="1" parent="0" />
        <mxCell id="LyiPn6veYWKkoinjSZd2-1" value="User" style="swimlane;fontStyle=2;align=center;verticalAlign=top;childLayout=stackLayout;horizontal=1;startSize=26;horizontalStack=0;resizeParent=1;resizeLast=0;collapsible=1;marginBottom=0;rounded=0;shadow=0;strokeWidth=1;" parent="1" vertex="1">
          <mxGeometry x="490" y="270" width="160" height="190" as="geometry">
            <mxRectangle x="230" y="140" width="160" height="26" as="alternateBounds" />
          </mxGeometry>
        </mxCell>
        <mxCell id="LyiPn6veYWKkoinjSZd2-2" value="- name: Int" style="text;align=left;verticalAlign=top;spacingLeft=4;spacingRight=4;overflow=hidden;rotatable=0;points=[[0,0.5],[1,0.5]];portConstraint=eastwest;" parent="LyiPn6veYWKkoinjSZd2-1" vertex="1">
          <mxGeometry y="26" width="160" height="26" as="geometry" />
        </mxCell>
        <mxCell id="LyiPn6veYWKkoinjSZd2-3" value="- email: String" style="text;align=left;verticalAlign=top;spacingLeft=4;spacingRight=4;overflow=hidden;rotatable=0;points=[[0,0.5],[1,0.5]];portConstraint=eastwest;rounded=0;shadow=0;html=0;" parent="LyiPn6veYWKkoinjSZd2-1" vertex="1">
          <mxGeometry y="52" width="160" height="26" as="geometry" />
        </mxCell>
        <mxCell id="LyiPn6veYWKkoinjSZd2-4" value="- age: Int" style="text;align=left;verticalAlign=top;spacingLeft=4;spacingRight=4;overflow=hidden;rotatable=0;points=[[0,0.5],[1,0.5]];portConstraint=eastwest;rounded=0;shadow=0;html=0;" parent="LyiPn6veYWKkoinjSZd2-1" vertex="1">
          <mxGeometry y="78" width="160" height="26" as="geometry" />
        </mxCell>
        <mxCell id="LyiPn6veYWKkoinjSZd2-5" value="- role: String" style="text;align=left;verticalAlign=top;spacingLeft=4;spacingRight=4;overflow=hidden;rotatable=0;points=[[0,0.5],[1,0.5]];portConstraint=eastwest;rounded=0;shadow=0;html=0;" parent="LyiPn6veYWKkoinjSZd2-1" vertex="1">
          <mxGeometry y="104" width="160" height="26" as="geometry" />
        </mxCell>
        <mxCell id="LyiPn6veYWKkoinjSZd2-6" value="" style="line;html=1;strokeWidth=1;align=left;verticalAlign=middle;spacingTop=-1;spacingLeft=3;spacingRight=3;rotatable=0;labelPosition=right;points=[];portConstraint=eastwest;" parent="LyiPn6veYWKkoinjSZd2-1" vertex="1">
          <mxGeometry y="130" width="160" height="8" as="geometry" />
        </mxCell>
        <mxCell id="LyiPn6veYWKkoinjSZd2-7" value="+ checkPsychEmotLevel()" style="text;align=left;verticalAlign=top;spacingLeft=4;spacingRight=4;overflow=hidden;rotatable=0;points=[[0,0.5],[1,0.5]];portConstraint=eastwest;" parent="LyiPn6veYWKkoinjSZd2-1" vertex="1">
          <mxGeometry y="138" width="160" height="26" as="geometry" />
        </mxCell>
        <mxCell id="LyiPn6veYWKkoinjSZd2-8" value="+ checkLightingLevel()" style="text;align=left;verticalAlign=top;spacingLeft=4;spacingRight=4;overflow=hidden;rotatable=0;points=[[0,0.5],[1,0.5]];portConstraint=eastwest;" parent="LyiPn6veYWKkoinjSZd2-1" vertex="1">
          <mxGeometry y="164" width="160" height="26" as="geometry" />
        </mxCell>
        <mxCell id="LyiPn6veYWKkoinjSZd2-9" style="edgeStyle=orthogonalEdgeStyle;rounded=0;orthogonalLoop=1;jettySize=auto;html=1;exitX=0.458;exitY=0.003;exitDx=0;exitDy=0;entryX=0.499;entryY=1.002;entryDx=0;entryDy=0;endSize=10;endArrow=open;endFill=0;entryPerimeter=0;exitPerimeter=0;" parent="1" source="LyiPn6veYWKkoinjSZd2-10" target="LyiPn6veYWKkoinjSZd2-67" edge="1">
          <mxGeometry relative="1" as="geometry">
            <Array as="points">
              <mxPoint x="892" y="471" />
            </Array>
          </mxGeometry>
        </mxCell>
        <mxCell id="LyiPn6veYWKkoinjSZd2-10" value="lighting" style="swimlane;fontStyle=2;align=center;verticalAlign=top;childLayout=stackLayout;horizontal=1;startSize=26;horizontalStack=0;resizeParent=1;resizeLast=0;collapsible=1;marginBottom=0;rounded=0;shadow=0;strokeWidth=1;" parent="1" vertex="1">
          <mxGeometry x="812" y="470" width="170" height="216" as="geometry">
            <mxRectangle x="550" y="140" width="160" height="26" as="alternateBounds" />
          </mxGeometry>
        </mxCell>
        <mxCell id="LyiPn6veYWKkoinjSZd2-11" value="- time: Date" style="text;align=left;verticalAlign=top;spacingLeft=4;spacingRight=4;overflow=hidden;rotatable=0;points=[[0,0.5],[1,0.5]];portConstraint=eastwest;" parent="LyiPn6veYWKkoinjSZd2-10" vertex="1">
          <mxGeometry y="26" width="170" height="26" as="geometry" />
        </mxCell>
        <mxCell id="LyiPn6veYWKkoinjSZd2-12" value="- level: Int" style="text;align=left;verticalAlign=top;spacingLeft=4;spacingRight=4;overflow=hidden;rotatable=0;points=[[0,0.5],[1,0.5]];portConstraint=eastwest;rounded=0;shadow=0;html=0;" parent="LyiPn6veYWKkoinjSZd2-10" vertex="1">
          <mxGeometry y="52" width="170" height="26" as="geometry" />
        </mxCell>
        <mxCell id="LyiPn6veYWKkoinjSZd2-13" value="- comfort: Int" style="text;align=left;verticalAlign=top;spacingLeft=4;spacingRight=4;overflow=hidden;rotatable=0;points=[[0,0.5],[1,0.5]];portConstraint=eastwest;rounded=0;shadow=0;html=0;" parent="LyiPn6veYWKkoinjSZd2-10" vertex="1">
          <mxGeometry y="78" width="170" height="26" as="geometry" />
        </mxCell>
        <mxCell id="LyiPn6veYWKkoinjSZd2-14" value="- choose_lighting: String" style="text;align=left;verticalAlign=top;spacingLeft=4;spacingRight=4;overflow=hidden;rotatable=0;points=[[0,0.5],[1,0.5]];portConstraint=eastwest;rounded=0;shadow=0;html=0;" parent="LyiPn6veYWKkoinjSZd2-10" vertex="1">
          <mxGeometry y="104" width="170" height="26" as="geometry" />
        </mxCell>
        <mxCell id="sDTNQ6NQUS_r1RzV8iLV-4" value="- collection: String" style="text;align=left;verticalAlign=top;spacingLeft=4;spacingRight=4;overflow=hidden;rotatable=0;points=[[0,0.5],[1,0.5]];portConstraint=eastwest;rounded=0;shadow=0;html=0;" vertex="1" parent="LyiPn6veYWKkoinjSZd2-10">
          <mxGeometry y="130" width="170" height="26" as="geometry" />
        </mxCell>
        <mxCell id="LyiPn6veYWKkoinjSZd2-16" value="" style="line;html=1;strokeWidth=1;align=left;verticalAlign=middle;spacingTop=-1;spacingLeft=3;spacingRight=3;rotatable=0;labelPosition=right;points=[];portConstraint=eastwest;" parent="LyiPn6veYWKkoinjSZd2-10" vertex="1">
          <mxGeometry y="156" width="170" height="8" as="geometry" />
        </mxCell>
        <mxCell id="LyiPn6veYWKkoinjSZd2-17" value="+ sendNotification()" style="text;align=left;verticalAlign=top;spacingLeft=4;spacingRight=4;overflow=hidden;rotatable=0;points=[[0,0.5],[1,0.5]];portConstraint=eastwest;" parent="LyiPn6veYWKkoinjSZd2-10" vertex="1">
          <mxGeometry y="164" width="170" height="26" as="geometry" />
        </mxCell>
        <mxCell id="LyiPn6veYWKkoinjSZd2-18" value="+ calculateLightingLevel()" style="text;align=left;verticalAlign=top;spacingLeft=4;spacingRight=4;overflow=hidden;rotatable=0;points=[[0,0.5],[1,0.5]];portConstraint=eastwest;" parent="LyiPn6veYWKkoinjSZd2-10" vertex="1">
          <mxGeometry y="190" width="170" height="26" as="geometry" />
        </mxCell>
        <mxCell id="LyiPn6veYWKkoinjSZd2-19" value="Consumer" style="swimlane;fontStyle=2;align=center;verticalAlign=top;childLayout=stackLayout;horizontal=1;startSize=26;horizontalStack=0;resizeParent=1;resizeLast=0;collapsible=1;marginBottom=0;rounded=0;shadow=0;strokeWidth=1;" parent="1" vertex="1">
          <mxGeometry x="140" y="100" width="210" height="170" as="geometry">
            <mxRectangle x="230" y="140" width="160" height="26" as="alternateBounds" />
          </mxGeometry>
        </mxCell>
        <mxCell id="LyiPn6veYWKkoinjSZd2-20" value="- psych_emot_level: Array" style="text;align=left;verticalAlign=top;spacingLeft=4;spacingRight=4;overflow=hidden;rotatable=0;points=[[0,0.5],[1,0.5]];portConstraint=eastwest;" parent="LyiPn6veYWKkoinjSZd2-19" vertex="1">
          <mxGeometry y="26" width="210" height="26" as="geometry" />
        </mxCell>
        <mxCell id="LyiPn6veYWKkoinjSZd2-21" value="- lighting_level: Array" style="text;align=left;verticalAlign=top;spacingLeft=4;spacingRight=4;overflow=hidden;rotatable=0;points=[[0,0.5],[1,0.5]];portConstraint=eastwest;rounded=0;shadow=0;html=0;" parent="LyiPn6veYWKkoinjSZd2-19" vertex="1">
          <mxGeometry y="52" width="210" height="28" as="geometry" />
        </mxCell>
        <mxCell id="LyiPn6veYWKkoinjSZd2-22" value="" style="line;html=1;strokeWidth=1;align=left;verticalAlign=middle;spacingTop=-1;spacingLeft=3;spacingRight=3;rotatable=0;labelPosition=right;points=[];portConstraint=eastwest;" parent="LyiPn6veYWKkoinjSZd2-19" vertex="1">
          <mxGeometry y="80" width="210" height="8" as="geometry" />
        </mxCell>
        <mxCell id="LyiPn6veYWKkoinjSZd2-23" value="+ sendTechnicalQuestion()" style="text;align=left;verticalAlign=top;spacingLeft=4;spacingRight=4;overflow=hidden;rotatable=0;points=[[0,0.5],[1,0.5]];portConstraint=eastwest;" parent="LyiPn6veYWKkoinjSZd2-19" vertex="1">
          <mxGeometry y="88" width="210" height="26" as="geometry" />
        </mxCell>
        <mxCell id="LyiPn6veYWKkoinjSZd2-24" value="+ checkPsychEmotLevel()" style="text;align=left;verticalAlign=top;spacingLeft=4;spacingRight=4;overflow=hidden;rotatable=0;points=[[0,0.5],[1,0.5]];portConstraint=eastwest;" parent="LyiPn6veYWKkoinjSZd2-19" vertex="1">
          <mxGeometry y="114" width="210" height="26" as="geometry" />
        </mxCell>
        <mxCell id="LyiPn6veYWKkoinjSZd2-25" value="+ checkLightingLevel()" style="text;align=left;verticalAlign=top;spacingLeft=4;spacingRight=4;overflow=hidden;rotatable=0;points=[[0,0.5],[1,0.5]];portConstraint=eastwest;" parent="LyiPn6veYWKkoinjSZd2-19" vertex="1">
          <mxGeometry y="140" width="210" height="26" as="geometry" />
        </mxCell>
        <mxCell id="LyiPn6veYWKkoinjSZd2-26" value="" style="endArrow=block;html=1;rounded=0;endFill=0;endSize=13;entryX=-0.005;entryY=0.701;entryDx=0;entryDy=0;entryPerimeter=0;" parent="1" target="LyiPn6veYWKkoinjSZd2-3" edge="1">
          <mxGeometry width="50" height="50" relative="1" as="geometry">
            <mxPoint x="240" y="270" as="sourcePoint" />
            <mxPoint x="560" y="275" as="targetPoint" />
            <Array as="points">
              <mxPoint x="240" y="340" />
              <mxPoint x="340" y="340" />
              <mxPoint x="440" y="340" />
            </Array>
          </mxGeometry>
        </mxCell>
        <mxCell id="LyiPn6veYWKkoinjSZd2-27" value="Technical_Support" style="swimlane;fontStyle=2;align=center;verticalAlign=top;childLayout=stackLayout;horizontal=1;startSize=26;horizontalStack=0;resizeParent=1;resizeLast=0;collapsible=1;marginBottom=0;rounded=0;shadow=0;strokeWidth=1;" parent="1" vertex="1">
          <mxGeometry x="145" y="450" width="210" height="120" as="geometry">
            <mxRectangle x="230" y="140" width="160" height="26" as="alternateBounds" />
          </mxGeometry>
        </mxCell>
        <mxCell id="LyiPn6veYWKkoinjSZd2-29" value="- position: String" style="text;align=left;verticalAlign=top;spacingLeft=4;spacingRight=4;overflow=hidden;rotatable=0;points=[[0,0.5],[1,0.5]];portConstraint=eastwest;rounded=0;shadow=0;html=0;" parent="LyiPn6veYWKkoinjSZd2-27" vertex="1">
          <mxGeometry y="26" width="210" height="28" as="geometry" />
        </mxCell>
        <mxCell id="LyiPn6veYWKkoinjSZd2-28" value="- specialization: String" style="text;align=left;verticalAlign=top;spacingLeft=4;spacingRight=4;overflow=hidden;rotatable=0;points=[[0,0.5],[1,0.5]];portConstraint=eastwest;" parent="LyiPn6veYWKkoinjSZd2-27" vertex="1">
          <mxGeometry y="54" width="210" height="26" as="geometry" />
        </mxCell>
        <mxCell id="LyiPn6veYWKkoinjSZd2-30" value="" style="line;html=1;strokeWidth=1;align=left;verticalAlign=middle;spacingTop=-1;spacingLeft=3;spacingRight=3;rotatable=0;labelPosition=right;points=[];portConstraint=eastwest;" parent="LyiPn6veYWKkoinjSZd2-27" vertex="1">
          <mxGeometry y="80" width="210" height="8" as="geometry" />
        </mxCell>
        <mxCell id="LyiPn6veYWKkoinjSZd2-31" value="+ answerTechnicalQuestion()" style="text;align=left;verticalAlign=top;spacingLeft=4;spacingRight=4;overflow=hidden;rotatable=0;points=[[0,0.5],[1,0.5]];portConstraint=eastwest;" parent="LyiPn6veYWKkoinjSZd2-27" vertex="1">
          <mxGeometry y="88" width="210" height="26" as="geometry" />
        </mxCell>
        <mxCell id="LyiPn6veYWKkoinjSZd2-32" value="technical_question" style="swimlane;fontStyle=2;align=center;verticalAlign=top;childLayout=stackLayout;horizontal=1;startSize=26;horizontalStack=0;resizeParent=1;resizeLast=0;collapsible=1;marginBottom=0;rounded=0;shadow=0;strokeWidth=1;" parent="1" vertex="1">
          <mxGeometry x="170" y="630" width="160" height="80" as="geometry">
            <mxRectangle x="550" y="140" width="160" height="26" as="alternateBounds" />
          </mxGeometry>
        </mxCell>
        <mxCell id="LyiPn6veYWKkoinjSZd2-33" value="- question: String" style="text;align=left;verticalAlign=top;spacingLeft=4;spacingRight=4;overflow=hidden;rotatable=0;points=[[0,0.5],[1,0.5]];portConstraint=eastwest;" parent="LyiPn6veYWKkoinjSZd2-32" vertex="1">
          <mxGeometry y="26" width="160" height="26" as="geometry" />
        </mxCell>
        <mxCell id="LyiPn6veYWKkoinjSZd2-34" value="- answer: String" style="text;align=left;verticalAlign=top;spacingLeft=4;spacingRight=4;overflow=hidden;rotatable=0;points=[[0,0.5],[1,0.5]];portConstraint=eastwest;rounded=0;shadow=0;html=0;" parent="LyiPn6veYWKkoinjSZd2-32" vertex="1">
          <mxGeometry y="52" width="160" height="26" as="geometry" />
        </mxCell>
        <mxCell id="LyiPn6veYWKkoinjSZd2-36" style="edgeStyle=orthogonalEdgeStyle;rounded=0;orthogonalLoop=1;jettySize=auto;html=1;exitX=0;exitY=0.5;exitDx=0;exitDy=0;entryX=0;entryY=0.5;entryDx=0;entryDy=0;" parent="1" source="LyiPn6veYWKkoinjSZd2-21" target="LyiPn6veYWKkoinjSZd2-33" edge="1">
          <mxGeometry relative="1" as="geometry">
            <mxPoint x="750" y="770" as="targetPoint" />
            <Array as="points">
              <mxPoint x="140" y="170" />
              <mxPoint x="80" y="170" />
              <mxPoint x="80" y="670" />
              <mxPoint x="170" y="670" />
            </Array>
          </mxGeometry>
        </mxCell>
        <mxCell id="LyiPn6veYWKkoinjSZd2-37" style="edgeStyle=orthogonalEdgeStyle;rounded=0;orthogonalLoop=1;jettySize=auto;html=1;exitX=0.5;exitY=1;exitDx=0;exitDy=0;entryX=0.5;entryY=0;entryDx=0;entryDy=0;" parent="1" source="LyiPn6veYWKkoinjSZd2-27" target="LyiPn6veYWKkoinjSZd2-32" edge="1">
          <mxGeometry relative="1" as="geometry">
            <Array as="points">
              <mxPoint x="250" y="620" />
              <mxPoint x="250" y="620" />
            </Array>
          </mxGeometry>
        </mxCell>
        <mxCell id="LyiPn6veYWKkoinjSZd2-38" value="answer" style="text;html=1;resizable=0;points=[];;align=center;verticalAlign=middle;labelBackgroundColor=none;rounded=0;shadow=0;strokeWidth=1;fontSize=12;" parent="1" vertex="1" connectable="0">
          <mxGeometry x="290" y="600" as="geometry" />
        </mxCell>
        <mxCell id="LyiPn6veYWKkoinjSZd2-39" value="send" style="text;html=1;resizable=0;points=[];;align=center;verticalAlign=middle;labelBackgroundColor=none;rounded=0;shadow=0;strokeWidth=1;fontSize=12;" parent="1" vertex="1" connectable="0">
          <mxGeometry x="50" y="366" as="geometry" />
        </mxCell>
        <mxCell id="LyiPn6veYWKkoinjSZd2-40" value="1" style="resizable=0;align=left;verticalAlign=bottom;labelBackgroundColor=none;fontSize=12;" parent="1" connectable="0" vertex="1">
          <mxGeometry x="80" y="185" as="geometry">
            <mxPoint x="32" y="-31" as="offset" />
          </mxGeometry>
        </mxCell>
        <mxCell id="LyiPn6veYWKkoinjSZd2-41" value="" style="resizable=0;align=right;verticalAlign=bottom;labelBackgroundColor=none;fontSize=12;" parent="1" connectable="0" vertex="1">
          <mxGeometry x="829" y="540" as="geometry">
            <mxPoint x="21" y="353" as="offset" />
          </mxGeometry>
        </mxCell>
        <mxCell id="LyiPn6veYWKkoinjSZd2-43" value="1" style="resizable=0;align=left;verticalAlign=bottom;labelBackgroundColor=none;fontSize=12;" parent="1" connectable="0" vertex="1">
          <mxGeometry x="230" y="590" as="geometry" />
        </mxCell>
        <mxCell id="LyiPn6veYWKkoinjSZd2-44" value="" style="endArrow=block;html=1;rounded=0;endFill=0;endSize=13;entryX=0;entryY=0.5;entryDx=0;entryDy=0;exitX=0.453;exitY=-0.016;exitDx=0;exitDy=0;exitPerimeter=0;" parent="1" source="LyiPn6veYWKkoinjSZd2-27" target="LyiPn6veYWKkoinjSZd2-4" edge="1">
          <mxGeometry width="50" height="50" relative="1" as="geometry">
            <mxPoint x="355" y="520" as="sourcePoint" />
            <mxPoint x="465" y="360" as="targetPoint" />
            <Array as="points">
              <mxPoint x="240" y="360" />
              <mxPoint x="440" y="361" />
            </Array>
          </mxGeometry>
        </mxCell>
        <mxCell id="LyiPn6veYWKkoinjSZd2-52" value="" style="endArrow=open;html=1;rounded=0;exitX=1;exitY=0.5;exitDx=0;exitDy=0;entryX=0;entryY=0.5;entryDx=0;entryDy=0;endFill=0;endSize=10;" parent="1" source="LyiPn6veYWKkoinjSZd2-4" target="LyiPn6veYWKkoinjSZd2-13" edge="1">
          <mxGeometry width="50" height="50" relative="1" as="geometry">
            <mxPoint x="660" y="420" as="sourcePoint" />
            <mxPoint x="730" y="520" as="targetPoint" />
            <Array as="points">
              <mxPoint x="730" y="361" />
              <mxPoint x="730" y="560" />
            </Array>
          </mxGeometry>
        </mxCell>
        <mxCell id="LyiPn6veYWKkoinjSZd2-53" value="send" style="text;html=1;resizable=0;points=[];;align=center;verticalAlign=middle;labelBackgroundColor=none;rounded=0;shadow=0;strokeWidth=1;fontSize=12;" parent="1" vertex="1" connectable="0">
          <mxGeometry x="700" y="450" as="geometry" />
        </mxCell>
        <mxCell id="LyiPn6veYWKkoinjSZd2-54" value="1" style="resizable=0;align=left;verticalAlign=bottom;labelBackgroundColor=none;fontSize=12;" parent="1" connectable="0" vertex="1">
          <mxGeometry x="660" y="390" as="geometry" />
        </mxCell>
        <mxCell id="LyiPn6veYWKkoinjSZd2-55" value="*" style="resizable=0;align=right;verticalAlign=bottom;labelBackgroundColor=none;fontSize=12;" parent="1" connectable="0" vertex="1">
          <mxGeometry x="260" y="690" as="geometry">
            <mxPoint x="-18" y="-62" as="offset" />
          </mxGeometry>
        </mxCell>
        <mxCell id="LyiPn6veYWKkoinjSZd2-58" value="*" style="resizable=0;align=right;verticalAlign=bottom;labelBackgroundColor=none;fontSize=12;" parent="1" connectable="0" vertex="1">
          <mxGeometry x="145" y="670" as="geometry" />
        </mxCell>
        <mxCell id="LyiPn6veYWKkoinjSZd2-59" value="*" style="resizable=0;align=right;verticalAlign=bottom;labelBackgroundColor=none;fontSize=12;" parent="1" connectable="0" vertex="1">
          <mxGeometry x="790" y="560" as="geometry" />
        </mxCell>
        <mxCell id="LyiPn6veYWKkoinjSZd2-62" value="psych-emot state" style="swimlane;fontStyle=2;align=center;verticalAlign=top;childLayout=stackLayout;horizontal=1;startSize=26;horizontalStack=0;resizeParent=1;resizeLast=0;collapsible=1;marginBottom=0;rounded=0;shadow=0;strokeWidth=1;" parent="1" vertex="1">
          <mxGeometry x="812" y="128" width="160" height="138" as="geometry">
            <mxRectangle x="550" y="140" width="160" height="26" as="alternateBounds" />
          </mxGeometry>
        </mxCell>
        <mxCell id="LyiPn6veYWKkoinjSZd2-63" value="- time: Date" style="text;align=left;verticalAlign=top;spacingLeft=4;spacingRight=4;overflow=hidden;rotatable=0;points=[[0,0.5],[1,0.5]];portConstraint=eastwest;" parent="LyiPn6veYWKkoinjSZd2-62" vertex="1">
          <mxGeometry y="26" width="160" height="26" as="geometry" />
        </mxCell>
        <mxCell id="LyiPn6veYWKkoinjSZd2-64" value="- level: Int" style="text;align=left;verticalAlign=top;spacingLeft=4;spacingRight=4;overflow=hidden;rotatable=0;points=[[0,0.5],[1,0.5]];portConstraint=eastwest;rounded=0;shadow=0;html=0;" parent="LyiPn6veYWKkoinjSZd2-62" vertex="1">
          <mxGeometry y="52" width="160" height="26" as="geometry" />
        </mxCell>
        <mxCell id="sDTNQ6NQUS_r1RzV8iLV-3" value="- collection: String" style="text;align=left;verticalAlign=top;spacingLeft=4;spacingRight=4;overflow=hidden;rotatable=0;points=[[0,0.5],[1,0.5]];portConstraint=eastwest;rounded=0;shadow=0;html=0;" vertex="1" parent="LyiPn6veYWKkoinjSZd2-62">
          <mxGeometry y="78" width="160" height="26" as="geometry" />
        </mxCell>
        <mxCell id="LyiPn6veYWKkoinjSZd2-66" value="" style="line;html=1;strokeWidth=1;align=left;verticalAlign=middle;spacingTop=-1;spacingLeft=3;spacingRight=3;rotatable=0;labelPosition=right;points=[];portConstraint=eastwest;" parent="LyiPn6veYWKkoinjSZd2-62" vertex="1">
          <mxGeometry y="104" width="160" height="8" as="geometry" />
        </mxCell>
        <mxCell id="LyiPn6veYWKkoinjSZd2-67" value="+ sendNotification()" style="text;align=left;verticalAlign=top;spacingLeft=4;spacingRight=4;overflow=hidden;rotatable=0;points=[[0,0.5],[1,0.5]];portConstraint=eastwest;" parent="LyiPn6veYWKkoinjSZd2-62" vertex="1">
          <mxGeometry y="112" width="160" height="26" as="geometry" />
        </mxCell>
        <mxCell id="LyiPn6veYWKkoinjSZd2-68" value="" style="resizable=0;align=right;verticalAlign=bottom;labelBackgroundColor=none;fontSize=12;" parent="1" connectable="0" vertex="1">
          <mxGeometry x="829" y="290" as="geometry">
            <mxPoint x="21" y="353" as="offset" />
          </mxGeometry>
        </mxCell>
        <mxCell id="LyiPn6veYWKkoinjSZd2-69" value="*" style="resizable=0;align=right;verticalAlign=bottom;labelBackgroundColor=none;fontSize=12;" parent="1" connectable="0" vertex="1">
          <mxGeometry x="800" y="197" as="geometry" />
        </mxCell>
        <mxCell id="LyiPn6veYWKkoinjSZd2-70" value="" style="endArrow=open;html=1;rounded=0;exitX=1;exitY=0.5;exitDx=0;exitDy=0;entryX=0;entryY=0.769;entryDx=0;entryDy=0;endFill=0;endSize=10;entryPerimeter=0;" parent="1" target="LyiPn6veYWKkoinjSZd2-64" edge="1">
          <mxGeometry width="50" height="50" relative="1" as="geometry">
            <mxPoint x="649.5" y="330" as="sourcePoint" />
            <mxPoint x="816.5" y="490" as="targetPoint" />
            <Array as="points">
              <mxPoint x="729.5" y="330" />
              <mxPoint x="730" y="200" />
            </Array>
          </mxGeometry>
        </mxCell>
        <mxCell id="LyiPn6veYWKkoinjSZd2-71" value="1" style="resizable=0;align=left;verticalAlign=bottom;labelBackgroundColor=none;fontSize=12;" parent="1" connectable="0" vertex="1">
          <mxGeometry x="660" y="320" as="geometry" />
        </mxCell>
        <mxCell id="LyiPn6veYWKkoinjSZd2-72" value="send" style="text;html=1;resizable=0;points=[];;align=center;verticalAlign=middle;labelBackgroundColor=none;rounded=0;shadow=0;strokeWidth=1;fontSize=12;" parent="1" vertex="1" connectable="0">
          <mxGeometry x="700" y="280" as="geometry" />
        </mxCell>
        <mxCell id="LyiPn6veYWKkoinjSZd2-73" value="notification" style="swimlane;fontStyle=2;align=center;verticalAlign=top;childLayout=stackLayout;horizontal=1;startSize=26;horizontalStack=0;resizeParent=1;resizeLast=0;collapsible=1;marginBottom=0;rounded=0;shadow=0;strokeWidth=1;" parent="1" vertex="1">
          <mxGeometry x="1144" y="310" width="196" height="156" as="geometry">
            <mxRectangle x="550" y="140" width="160" height="26" as="alternateBounds" />
          </mxGeometry>
        </mxCell>
        <mxCell id="LyiPn6veYWKkoinjSZd2-74" value="- type: String" style="text;align=left;verticalAlign=top;spacingLeft=4;spacingRight=4;overflow=hidden;rotatable=0;points=[[0,0.5],[1,0.5]];portConstraint=eastwest;" parent="LyiPn6veYWKkoinjSZd2-73" vertex="1">
          <mxGeometry y="26" width="196" height="26" as="geometry" />
        </mxCell>
        <mxCell id="LyiPn6veYWKkoinjSZd2-75" value="- topic: String" style="text;align=left;verticalAlign=top;spacingLeft=4;spacingRight=4;overflow=hidden;rotatable=0;points=[[0,0.5],[1,0.5]];portConstraint=eastwest;rounded=0;shadow=0;html=0;" parent="LyiPn6veYWKkoinjSZd2-73" vertex="1">
          <mxGeometry y="52" width="196" height="26" as="geometry" />
        </mxCell>
        <mxCell id="LyiPn6veYWKkoinjSZd2-76" value="- text: String" style="text;align=left;verticalAlign=top;spacingLeft=4;spacingRight=4;overflow=hidden;rotatable=0;points=[[0,0.5],[1,0.5]];portConstraint=eastwest;rounded=0;shadow=0;html=0;" parent="LyiPn6veYWKkoinjSZd2-73" vertex="1">
          <mxGeometry y="78" width="196" height="26" as="geometry" />
        </mxCell>
        <mxCell id="sDTNQ6NQUS_r1RzV8iLV-5" value="- psych-emot_notification: String" style="text;align=left;verticalAlign=top;spacingLeft=4;spacingRight=4;overflow=hidden;rotatable=0;points=[[0,0.5],[1,0.5]];portConstraint=eastwest;rounded=0;shadow=0;html=0;" vertex="1" parent="LyiPn6veYWKkoinjSZd2-73">
          <mxGeometry y="104" width="196" height="26" as="geometry" />
        </mxCell>
        <mxCell id="sDTNQ6NQUS_r1RzV8iLV-6" value="-lighting_notification: String" style="text;align=left;verticalAlign=top;spacingLeft=4;spacingRight=4;overflow=hidden;rotatable=0;points=[[0,0.5],[1,0.5]];portConstraint=eastwest;rounded=0;shadow=0;html=0;" vertex="1" parent="LyiPn6veYWKkoinjSZd2-73">
          <mxGeometry y="130" width="196" height="26" as="geometry" />
        </mxCell>
        <mxCell id="LyiPn6veYWKkoinjSZd2-77" value="" style="resizable=0;align=right;verticalAlign=bottom;labelBackgroundColor=none;fontSize=12;" parent="1" connectable="0" vertex="1">
          <mxGeometry x="1156" y="420" as="geometry">
            <mxPoint x="21" y="353" as="offset" />
          </mxGeometry>
        </mxCell>
        <mxCell id="LyiPn6veYWKkoinjSZd2-78" style="edgeStyle=orthogonalEdgeStyle;rounded=0;orthogonalLoop=1;jettySize=auto;html=1;exitX=1;exitY=0.5;exitDx=0;exitDy=0;endArrow=open;endFill=0;endSize=10;" parent="1" source="LyiPn6veYWKkoinjSZd2-64" target="sDTNQ6NQUS_r1RzV8iLV-5" edge="1">
          <mxGeometry relative="1" as="geometry">
            <Array as="points">
              <mxPoint x="972" y="200" />
              <mxPoint x="1058" y="200" />
              <mxPoint x="1058" y="420" />
            </Array>
          </mxGeometry>
        </mxCell>
        <mxCell id="LyiPn6veYWKkoinjSZd2-79" style="edgeStyle=orthogonalEdgeStyle;rounded=0;orthogonalLoop=1;jettySize=auto;html=1;exitX=1;exitY=0.5;exitDx=0;exitDy=0;strokeWidth=1;endSize=10;endArrow=open;endFill=0;" parent="1" source="LyiPn6veYWKkoinjSZd2-13" target="sDTNQ6NQUS_r1RzV8iLV-6" edge="1">
          <mxGeometry relative="1" as="geometry">
            <Array as="points">
              <mxPoint x="1003" y="561" />
              <mxPoint x="1003" y="560" />
              <mxPoint x="1050" y="560" />
              <mxPoint x="1050" y="450" />
            </Array>
            <mxPoint x="1003.4399999999998" y="535" as="sourcePoint" />
            <mxPoint x="1176.5599999999997" y="409.866" as="targetPoint" />
          </mxGeometry>
        </mxCell>
        <mxCell id="LyiPn6veYWKkoinjSZd2-80" value="send" style="text;html=1;resizable=0;points=[];;align=center;verticalAlign=middle;labelBackgroundColor=none;rounded=0;shadow=0;strokeWidth=1;fontSize=12;" parent="1" vertex="1" connectable="0">
          <mxGeometry x="1090" y="270" as="geometry" />
        </mxCell>
        <mxCell id="LyiPn6veYWKkoinjSZd2-81" value="send" style="text;html=1;resizable=0;points=[];;align=center;verticalAlign=middle;labelBackgroundColor=none;rounded=0;shadow=0;strokeWidth=1;fontSize=12;" parent="1" vertex="1" connectable="0">
          <mxGeometry x="1090" y="470" as="geometry" />
        </mxCell>
        <mxCell id="LyiPn6veYWKkoinjSZd2-82" value="*" style="resizable=0;align=right;verticalAlign=bottom;labelBackgroundColor=none;fontSize=12;" parent="1" connectable="0" vertex="1">
          <mxGeometry x="1130" y="430" as="geometry" />
        </mxCell>
        <mxCell id="LyiPn6veYWKkoinjSZd2-83" value="*" style="resizable=0;align=right;verticalAlign=bottom;labelBackgroundColor=none;fontSize=12;" parent="1" connectable="0" vertex="1">
          <mxGeometry x="1130" y="365" as="geometry" />
        </mxCell>
        <mxCell id="LyiPn6veYWKkoinjSZd2-84" value="1" style="resizable=0;align=left;verticalAlign=bottom;labelBackgroundColor=none;fontSize=12;" parent="1" connectable="0" vertex="1">
          <mxGeometry x="982" y="250" as="geometry">
            <mxPoint x="1" y="-55" as="offset" />
          </mxGeometry>
        </mxCell>
        <mxCell id="LyiPn6veYWKkoinjSZd2-85" value="1" style="resizable=0;align=left;verticalAlign=bottom;labelBackgroundColor=none;fontSize=12;" parent="1" connectable="0" vertex="1">
          <mxGeometry x="990" y="585" as="geometry" />
        </mxCell>
        <mxCell id="LyiPn6veYWKkoinjSZd2-86" value="1" style="resizable=0;align=left;verticalAlign=bottom;labelBackgroundColor=none;fontSize=12;" parent="1" connectable="0" vertex="1">
          <mxGeometry x="870" y="460" as="geometry" />
        </mxCell>
        <mxCell id="LyiPn6veYWKkoinjSZd2-87" value="1" style="resizable=0;align=left;verticalAlign=bottom;labelBackgroundColor=none;fontSize=12;" parent="1" connectable="0" vertex="1">
          <mxGeometry x="870" y="290" as="geometry" />
        </mxCell>
        <mxCell id="LyiPn6veYWKkoinjSZd2-88" value="calculate" style="text;html=1;resizable=0;points=[];;align=center;verticalAlign=middle;labelBackgroundColor=none;rounded=0;shadow=0;strokeWidth=1;fontSize=12;" parent="1" vertex="1" connectable="0">
          <mxGeometry x="850" y="365" as="geometry" />
        </mxCell>
      </root>
    </mxGraphModel>
  </diagram>
  <diagram id="gE7cOhW9pCKrOsJMOUvD" name="Страница — 2">
    <mxGraphModel dx="1726" dy="599" grid="1" gridSize="10" guides="1" tooltips="1" connect="1" arrows="1" fold="1" page="1" pageScale="1" pageWidth="827" pageHeight="1169" math="0" shadow="0">
      <root>
        <mxCell id="0" />
        <mxCell id="1" parent="0" />
        <mxCell id="D6V-iZ1zgxCqqQ2c0elW-1" value="User" style="swimlane;fontStyle=0;childLayout=stackLayout;horizontal=1;startSize=26;fillColor=none;horizontalStack=0;resizeParent=1;resizeParentMax=0;resizeLast=0;collapsible=1;marginBottom=0;" vertex="1" parent="1">
          <mxGeometry x="426" y="350" width="140" height="130" as="geometry">
            <mxRectangle x="280" y="-970" width="70" height="30" as="alternateBounds" />
          </mxGeometry>
        </mxCell>
        <mxCell id="D6V-iZ1zgxCqqQ2c0elW-2" value="name" style="text;strokeColor=none;fillColor=none;align=left;verticalAlign=top;spacingLeft=4;spacingRight=4;overflow=hidden;rotatable=0;points=[[0,0.5],[1,0.5]];portConstraint=eastwest;" vertex="1" parent="D6V-iZ1zgxCqqQ2c0elW-1">
          <mxGeometry y="26" width="140" height="26" as="geometry" />
        </mxCell>
        <mxCell id="D6V-iZ1zgxCqqQ2c0elW-3" value="age" style="text;strokeColor=none;fillColor=none;align=left;verticalAlign=top;spacingLeft=4;spacingRight=4;overflow=hidden;rotatable=0;points=[[0,0.5],[1,0.5]];portConstraint=eastwest;" vertex="1" parent="D6V-iZ1zgxCqqQ2c0elW-1">
          <mxGeometry y="52" width="140" height="26" as="geometry" />
        </mxCell>
        <mxCell id="D6V-iZ1zgxCqqQ2c0elW-4" value="email" style="text;strokeColor=none;fillColor=none;align=left;verticalAlign=top;spacingLeft=4;spacingRight=4;overflow=hidden;rotatable=0;points=[[0,0.5],[1,0.5]];portConstraint=eastwest;" vertex="1" parent="D6V-iZ1zgxCqqQ2c0elW-1">
          <mxGeometry y="78" width="140" height="26" as="geometry" />
        </mxCell>
        <mxCell id="D6V-iZ1zgxCqqQ2c0elW-5" value="role" style="text;strokeColor=none;fillColor=none;align=left;verticalAlign=top;spacingLeft=4;spacingRight=4;overflow=hidden;rotatable=0;points=[[0,0.5],[1,0.5]];portConstraint=eastwest;" vertex="1" parent="D6V-iZ1zgxCqqQ2c0elW-1">
          <mxGeometry y="104" width="140" height="26" as="geometry" />
        </mxCell>
        <mxCell id="D6V-iZ1zgxCqqQ2c0elW-6" value="psych-emot state" style="swimlane;fontStyle=0;childLayout=stackLayout;horizontal=1;startSize=26;fillColor=none;horizontalStack=0;resizeParent=1;resizeParentMax=0;resizeLast=0;collapsible=1;marginBottom=0;" vertex="1" parent="1">
          <mxGeometry x="720" y="260" width="140" height="78" as="geometry">
            <mxRectangle x="520" y="-940" width="100" height="30" as="alternateBounds" />
          </mxGeometry>
        </mxCell>
        <mxCell id="D6V-iZ1zgxCqqQ2c0elW-7" value="time" style="text;strokeColor=none;fillColor=none;align=left;verticalAlign=top;spacingLeft=4;spacingRight=4;overflow=hidden;rotatable=0;points=[[0,0.5],[1,0.5]];portConstraint=eastwest;" vertex="1" parent="D6V-iZ1zgxCqqQ2c0elW-6">
          <mxGeometry y="26" width="140" height="26" as="geometry" />
        </mxCell>
        <mxCell id="D6V-iZ1zgxCqqQ2c0elW-8" value="level" style="text;strokeColor=none;fillColor=none;align=left;verticalAlign=top;spacingLeft=4;spacingRight=4;overflow=hidden;rotatable=0;points=[[0,0.5],[1,0.5]];portConstraint=eastwest;" vertex="1" parent="D6V-iZ1zgxCqqQ2c0elW-6">
          <mxGeometry y="52" width="140" height="26" as="geometry" />
        </mxCell>
        <mxCell id="D6V-iZ1zgxCqqQ2c0elW-9" value="Consumer" style="swimlane;fontStyle=0;childLayout=stackLayout;horizontal=1;startSize=26;fillColor=none;horizontalStack=0;resizeParent=1;resizeParentMax=0;resizeLast=0;collapsible=1;marginBottom=0;" vertex="1" parent="1">
          <mxGeometry x="246" y="260" width="160" height="78" as="geometry" />
        </mxCell>
        <mxCell id="D6V-iZ1zgxCqqQ2c0elW-10" value="psych-emot level" style="text;strokeColor=none;fillColor=none;align=left;verticalAlign=top;spacingLeft=4;spacingRight=4;overflow=hidden;rotatable=0;points=[[0,0.5],[1,0.5]];portConstraint=eastwest;" vertex="1" parent="D6V-iZ1zgxCqqQ2c0elW-9">
          <mxGeometry y="26" width="160" height="26" as="geometry" />
        </mxCell>
        <mxCell id="D6V-iZ1zgxCqqQ2c0elW-11" value="lighting level" style="text;strokeColor=none;fillColor=none;align=left;verticalAlign=top;spacingLeft=4;spacingRight=4;overflow=hidden;rotatable=0;points=[[0,0.5],[1,0.5]];portConstraint=eastwest;" vertex="1" parent="D6V-iZ1zgxCqqQ2c0elW-9">
          <mxGeometry y="52" width="160" height="26" as="geometry" />
        </mxCell>
        <mxCell id="D6V-iZ1zgxCqqQ2c0elW-12" value="" style="endArrow=none;html=1;startSize=12;startArrow=block;startFill=0;exitX=0.003;exitY=0.115;exitDx=0;exitDy=0;exitPerimeter=0;edgeStyle=orthogonalEdgeStyle;entryX=0.658;entryY=1.015;entryDx=0;entryDy=0;entryPerimeter=0;" edge="1" parent="1">
          <mxGeometry relative="1" as="geometry">
            <mxPoint x="426.00000000000006" y="395.70000000000005" as="sourcePoint" />
            <mxPoint x="350.85999999999996" y="338" as="targetPoint" />
            <Array as="points">
              <mxPoint x="349.58" y="395.61" />
              <mxPoint x="349.58" y="339.61" />
              <mxPoint x="350.58" y="339.61" />
            </Array>
          </mxGeometry>
        </mxCell>
        <mxCell id="D6V-iZ1zgxCqqQ2c0elW-13" value="" style="endArrow=none;html=1;startSize=12;startArrow=open;startFill=0;entryX=1;entryY=0.5;entryDx=0;entryDy=0;exitX=0;exitY=0.5;exitDx=0;exitDy=0;" edge="1" parent="1" source="D6V-iZ1zgxCqqQ2c0elW-7" target="D6V-iZ1zgxCqqQ2c0elW-2">
          <mxGeometry relative="1" as="geometry">
            <mxPoint x="690.4200000000001" y="360" as="sourcePoint" />
            <mxPoint x="650" y="389.0000000000001" as="targetPoint" />
          </mxGeometry>
        </mxCell>
        <mxCell id="D6V-iZ1zgxCqqQ2c0elW-14" value="*" style="edgeLabel;resizable=0;html=1;align=left;verticalAlign=bottom;" connectable="0" vertex="1" parent="D6V-iZ1zgxCqqQ2c0elW-13">
          <mxGeometry x="-1" relative="1" as="geometry">
            <mxPoint x="-20" y="1" as="offset" />
          </mxGeometry>
        </mxCell>
        <mxCell id="D6V-iZ1zgxCqqQ2c0elW-15" value="1" style="edgeLabel;resizable=0;html=1;align=right;verticalAlign=bottom;" connectable="0" vertex="1" parent="D6V-iZ1zgxCqqQ2c0elW-13">
          <mxGeometry x="1" relative="1" as="geometry">
            <mxPoint x="10" y="-19" as="offset" />
          </mxGeometry>
        </mxCell>
        <mxCell id="D6V-iZ1zgxCqqQ2c0elW-16" value="send" style="edgeLabel;html=1;align=center;verticalAlign=middle;resizable=0;points=[];" vertex="1" connectable="0" parent="D6V-iZ1zgxCqqQ2c0elW-13">
          <mxGeometry x="0.1697" y="2" relative="1" as="geometry">
            <mxPoint y="-13" as="offset" />
          </mxGeometry>
        </mxCell>
        <mxCell id="D6V-iZ1zgxCqqQ2c0elW-17" value="lighting" style="swimlane;fontStyle=0;childLayout=stackLayout;horizontal=1;startSize=26;fillColor=none;horizontalStack=0;resizeParent=1;resizeParentMax=0;resizeLast=0;collapsible=1;marginBottom=0;" vertex="1" parent="1">
          <mxGeometry x="720" y="530" width="140" height="130" as="geometry">
            <mxRectangle x="520" y="-940" width="100" height="30" as="alternateBounds" />
          </mxGeometry>
        </mxCell>
        <mxCell id="D6V-iZ1zgxCqqQ2c0elW-18" value="check time" style="text;strokeColor=none;fillColor=none;align=left;verticalAlign=top;spacingLeft=4;spacingRight=4;overflow=hidden;rotatable=0;points=[[0,0.5],[1,0.5]];portConstraint=eastwest;" vertex="1" parent="D6V-iZ1zgxCqqQ2c0elW-17">
          <mxGeometry y="26" width="140" height="26" as="geometry" />
        </mxCell>
        <mxCell id="D6V-iZ1zgxCqqQ2c0elW-19" value="level" style="text;strokeColor=none;fillColor=none;align=left;verticalAlign=top;spacingLeft=4;spacingRight=4;overflow=hidden;rotatable=0;points=[[0,0.5],[1,0.5]];portConstraint=eastwest;" vertex="1" parent="D6V-iZ1zgxCqqQ2c0elW-17">
          <mxGeometry y="52" width="140" height="26" as="geometry" />
        </mxCell>
        <mxCell id="D6V-iZ1zgxCqqQ2c0elW-20" value="comfort" style="text;strokeColor=none;fillColor=none;align=left;verticalAlign=top;spacingLeft=4;spacingRight=4;overflow=hidden;rotatable=0;points=[[0,0.5],[1,0.5]];portConstraint=eastwest;" vertex="1" parent="D6V-iZ1zgxCqqQ2c0elW-17">
          <mxGeometry y="78" width="140" height="26" as="geometry" />
        </mxCell>
        <mxCell id="D6V-iZ1zgxCqqQ2c0elW-21" value="choose lightig" style="text;strokeColor=none;fillColor=none;align=left;verticalAlign=top;spacingLeft=4;spacingRight=4;overflow=hidden;rotatable=0;points=[[0,0.5],[1,0.5]];portConstraint=eastwest;" vertex="1" parent="D6V-iZ1zgxCqqQ2c0elW-17">
          <mxGeometry y="104" width="140" height="26" as="geometry" />
        </mxCell>
        <mxCell id="D6V-iZ1zgxCqqQ2c0elW-22" value="send" style="edgeLabel;html=1;align=center;verticalAlign=middle;resizable=0;points=[];" vertex="1" connectable="0" parent="1">
          <mxGeometry x="690" y="470" as="geometry">
            <mxPoint x="-16" y="18" as="offset" />
          </mxGeometry>
        </mxCell>
        <mxCell id="D6V-iZ1zgxCqqQ2c0elW-23" value="" style="endArrow=none;html=1;startSize=12;startArrow=open;startFill=0;entryX=0.5;entryY=0;entryDx=0;entryDy=0;" edge="1" parent="1" source="D6V-iZ1zgxCqqQ2c0elW-8" target="D6V-iZ1zgxCqqQ2c0elW-17">
          <mxGeometry relative="1" as="geometry">
            <mxPoint x="815" y="399" as="sourcePoint" />
            <mxPoint x="715" y="399" as="targetPoint" />
          </mxGeometry>
        </mxCell>
        <mxCell id="D6V-iZ1zgxCqqQ2c0elW-24" value="1" style="edgeLabel;resizable=0;html=1;align=left;verticalAlign=bottom;" connectable="0" vertex="1" parent="D6V-iZ1zgxCqqQ2c0elW-23">
          <mxGeometry x="-1" relative="1" as="geometry">
            <mxPoint x="-15" y="35" as="offset" />
          </mxGeometry>
        </mxCell>
        <mxCell id="D6V-iZ1zgxCqqQ2c0elW-25" value="1" style="edgeLabel;resizable=0;html=1;align=right;verticalAlign=bottom;" connectable="0" vertex="1" parent="D6V-iZ1zgxCqqQ2c0elW-23">
          <mxGeometry x="1" relative="1" as="geometry">
            <mxPoint x="-6" y="-4" as="offset" />
          </mxGeometry>
        </mxCell>
        <mxCell id="D6V-iZ1zgxCqqQ2c0elW-26" value="" style="endArrow=none;html=1;startSize=12;startArrow=open;startFill=0;entryX=1.01;entryY=0.119;entryDx=0;entryDy=0;exitX=-0.038;exitY=0.846;exitDx=0;exitDy=0;entryPerimeter=0;exitPerimeter=0;" edge="1" parent="1" source="D6V-iZ1zgxCqqQ2c0elW-18" target="D6V-iZ1zgxCqqQ2c0elW-5">
          <mxGeometry relative="1" as="geometry">
            <mxPoint x="830" y="438" as="sourcePoint" />
            <mxPoint x="650" y="441" as="targetPoint" />
          </mxGeometry>
        </mxCell>
        <mxCell id="D6V-iZ1zgxCqqQ2c0elW-27" value="*" style="edgeLabel;resizable=0;html=1;align=left;verticalAlign=bottom;" connectable="0" vertex="1" parent="D6V-iZ1zgxCqqQ2c0elW-26">
          <mxGeometry x="-1" relative="1" as="geometry">
            <mxPoint x="-15" y="21" as="offset" />
          </mxGeometry>
        </mxCell>
        <mxCell id="D6V-iZ1zgxCqqQ2c0elW-28" value="1" style="edgeLabel;resizable=0;html=1;align=right;verticalAlign=bottom;" connectable="0" vertex="1" parent="D6V-iZ1zgxCqqQ2c0elW-26">
          <mxGeometry x="1" relative="1" as="geometry">
            <mxPoint x="12" y="39" as="offset" />
          </mxGeometry>
        </mxCell>
        <mxCell id="D6V-iZ1zgxCqqQ2c0elW-29" value="notification" style="swimlane;fontStyle=0;childLayout=stackLayout;horizontal=1;startSize=26;fillColor=none;horizontalStack=0;resizeParent=1;resizeParentMax=0;resizeLast=0;collapsible=1;marginBottom=0;" vertex="1" parent="1">
          <mxGeometry x="980" y="350" width="140" height="104" as="geometry">
            <mxRectangle x="520" y="-940" width="100" height="30" as="alternateBounds" />
          </mxGeometry>
        </mxCell>
        <mxCell id="D6V-iZ1zgxCqqQ2c0elW-30" value="type" style="text;strokeColor=none;fillColor=none;align=left;verticalAlign=top;spacingLeft=4;spacingRight=4;overflow=hidden;rotatable=0;points=[[0,0.5],[1,0.5]];portConstraint=eastwest;" vertex="1" parent="D6V-iZ1zgxCqqQ2c0elW-29">
          <mxGeometry y="26" width="140" height="26" as="geometry" />
        </mxCell>
        <mxCell id="D6V-iZ1zgxCqqQ2c0elW-31" value="topic" style="text;strokeColor=none;fillColor=none;align=left;verticalAlign=top;spacingLeft=4;spacingRight=4;overflow=hidden;rotatable=0;points=[[0,0.5],[1,0.5]];portConstraint=eastwest;" vertex="1" parent="D6V-iZ1zgxCqqQ2c0elW-29">
          <mxGeometry y="52" width="140" height="26" as="geometry" />
        </mxCell>
        <mxCell id="D6V-iZ1zgxCqqQ2c0elW-32" value="text" style="text;strokeColor=none;fillColor=none;align=left;verticalAlign=top;spacingLeft=4;spacingRight=4;overflow=hidden;rotatable=0;points=[[0,0.5],[1,0.5]];portConstraint=eastwest;" vertex="1" parent="D6V-iZ1zgxCqqQ2c0elW-29">
          <mxGeometry y="78" width="140" height="26" as="geometry" />
        </mxCell>
        <mxCell id="D6V-iZ1zgxCqqQ2c0elW-33" value="" style="endArrow=none;html=1;startSize=12;startArrow=open;startFill=0;entryX=1;entryY=0.5;entryDx=0;entryDy=0;exitX=0;exitY=0.5;exitDx=0;exitDy=0;" edge="1" parent="1" source="D6V-iZ1zgxCqqQ2c0elW-30" target="D6V-iZ1zgxCqqQ2c0elW-7">
          <mxGeometry relative="1" as="geometry">
            <mxPoint x="1105" y="544" as="sourcePoint" />
            <mxPoint x="950" y="390" as="targetPoint" />
          </mxGeometry>
        </mxCell>
        <mxCell id="D6V-iZ1zgxCqqQ2c0elW-34" value="" style="endArrow=none;html=1;startSize=12;startArrow=open;startFill=0;entryX=1;entryY=0.5;entryDx=0;entryDy=0;exitX=-0.005;exitY=0.14;exitDx=0;exitDy=0;exitPerimeter=0;" edge="1" parent="1" source="D6V-iZ1zgxCqqQ2c0elW-32" target="D6V-iZ1zgxCqqQ2c0elW-18">
          <mxGeometry relative="1" as="geometry">
            <mxPoint x="1030" y="460" as="sourcePoint" />
            <mxPoint x="955" y="399" as="targetPoint" />
          </mxGeometry>
        </mxCell>
        <mxCell id="D6V-iZ1zgxCqqQ2c0elW-35" value="1" style="edgeLabel;resizable=0;html=1;align=right;verticalAlign=bottom;" connectable="0" vertex="1" parent="1">
          <mxGeometry x="960" y="402" as="geometry" />
        </mxCell>
        <mxCell id="D6V-iZ1zgxCqqQ2c0elW-36" value="send" style="edgeLabel;html=1;align=center;verticalAlign=middle;resizable=0;points=[];" vertex="1" connectable="0" parent="1">
          <mxGeometry x="905" y="350" as="geometry" />
        </mxCell>
        <mxCell id="D6V-iZ1zgxCqqQ2c0elW-37" value="send" style="edgeLabel;html=1;align=center;verticalAlign=middle;resizable=0;points=[];" vertex="1" connectable="0" parent="1">
          <mxGeometry x="900" y="490" as="geometry">
            <mxPoint x="2" y="-1" as="offset" />
          </mxGeometry>
        </mxCell>
        <mxCell id="D6V-iZ1zgxCqqQ2c0elW-38" value="Technical Support" style="swimlane;fontStyle=0;childLayout=stackLayout;horizontal=1;startSize=26;fillColor=none;horizontalStack=0;resizeParent=1;resizeParentMax=0;resizeLast=0;collapsible=1;marginBottom=0;" vertex="1" parent="1">
          <mxGeometry x="266" y="530" width="160" height="78" as="geometry" />
        </mxCell>
        <mxCell id="D6V-iZ1zgxCqqQ2c0elW-39" value="specialization" style="text;strokeColor=none;fillColor=none;align=left;verticalAlign=top;spacingLeft=4;spacingRight=4;overflow=hidden;rotatable=0;points=[[0,0.5],[1,0.5]];portConstraint=eastwest;" vertex="1" parent="D6V-iZ1zgxCqqQ2c0elW-38">
          <mxGeometry y="26" width="160" height="26" as="geometry" />
        </mxCell>
        <mxCell id="D6V-iZ1zgxCqqQ2c0elW-40" value="position" style="text;strokeColor=none;fillColor=none;align=left;verticalAlign=top;spacingLeft=4;spacingRight=4;overflow=hidden;rotatable=0;points=[[0,0.5],[1,0.5]];portConstraint=eastwest;" vertex="1" parent="D6V-iZ1zgxCqqQ2c0elW-38">
          <mxGeometry y="52" width="160" height="26" as="geometry" />
        </mxCell>
        <mxCell id="D6V-iZ1zgxCqqQ2c0elW-41" value="" style="endArrow=none;html=1;startSize=12;startArrow=block;startFill=0;edgeStyle=orthogonalEdgeStyle;entryX=0.5;entryY=0;entryDx=0;entryDy=0;" edge="1" parent="1" target="D6V-iZ1zgxCqqQ2c0elW-38">
          <mxGeometry relative="1" as="geometry">
            <mxPoint x="430" y="420" as="sourcePoint" />
            <mxPoint x="426" y="744" as="targetPoint" />
            <Array as="points">
              <mxPoint x="346" y="420" />
            </Array>
          </mxGeometry>
        </mxCell>
        <mxCell id="D6V-iZ1zgxCqqQ2c0elW-42" value="technical question" style="swimlane;fontStyle=0;childLayout=stackLayout;horizontal=1;startSize=26;fillColor=none;horizontalStack=0;resizeParent=1;resizeParentMax=0;resizeLast=0;collapsible=1;marginBottom=0;" vertex="1" parent="1">
          <mxGeometry x="280" y="720" width="160" height="78" as="geometry" />
        </mxCell>
        <mxCell id="D6V-iZ1zgxCqqQ2c0elW-43" value="question" style="text;strokeColor=none;fillColor=none;align=left;verticalAlign=top;spacingLeft=4;spacingRight=4;overflow=hidden;rotatable=0;points=[[0,0.5],[1,0.5]];portConstraint=eastwest;" vertex="1" parent="D6V-iZ1zgxCqqQ2c0elW-42">
          <mxGeometry y="26" width="160" height="26" as="geometry" />
        </mxCell>
        <mxCell id="D6V-iZ1zgxCqqQ2c0elW-44" value="answer" style="text;strokeColor=none;fillColor=none;align=left;verticalAlign=top;spacingLeft=4;spacingRight=4;overflow=hidden;rotatable=0;points=[[0,0.5],[1,0.5]];portConstraint=eastwest;" vertex="1" parent="D6V-iZ1zgxCqqQ2c0elW-42">
          <mxGeometry y="52" width="160" height="26" as="geometry" />
        </mxCell>
        <mxCell id="D6V-iZ1zgxCqqQ2c0elW-45" value="" style="endArrow=none;html=1;startSize=12;startArrow=open;startFill=0;" edge="1" parent="1">
          <mxGeometry relative="1" as="geometry">
            <mxPoint x="280" y="770" as="sourcePoint" />
            <mxPoint x="246" y="300" as="targetPoint" />
            <Array as="points">
              <mxPoint x="206" y="770" />
              <mxPoint x="206" y="300" />
            </Array>
          </mxGeometry>
        </mxCell>
        <mxCell id="D6V-iZ1zgxCqqQ2c0elW-46" value="1" style="edgeLabel;resizable=0;html=1;align=right;verticalAlign=bottom;" connectable="0" vertex="1" parent="D6V-iZ1zgxCqqQ2c0elW-45">
          <mxGeometry x="1" relative="1" as="geometry">
            <mxPoint x="-20" y="-14" as="offset" />
          </mxGeometry>
        </mxCell>
        <mxCell id="D6V-iZ1zgxCqqQ2c0elW-47" value="" style="endArrow=none;html=1;startSize=12;startArrow=open;startFill=0;exitX=0.5;exitY=0;exitDx=0;exitDy=0;" edge="1" parent="1" source="D6V-iZ1zgxCqqQ2c0elW-42">
          <mxGeometry relative="1" as="geometry">
            <mxPoint x="686" y="770" as="sourcePoint" />
            <mxPoint x="360" y="610" as="targetPoint" />
          </mxGeometry>
        </mxCell>
        <mxCell id="D6V-iZ1zgxCqqQ2c0elW-48" value="1" style="edgeLabel;resizable=0;html=1;align=right;verticalAlign=bottom;" connectable="0" vertex="1" parent="D6V-iZ1zgxCqqQ2c0elW-47">
          <mxGeometry x="1" relative="1" as="geometry">
            <mxPoint x="18" y="24" as="offset" />
          </mxGeometry>
        </mxCell>
        <mxCell id="D6V-iZ1zgxCqqQ2c0elW-49" value="answer" style="edgeLabel;html=1;align=center;verticalAlign=middle;resizable=0;points=[];" vertex="1" connectable="0" parent="1">
          <mxGeometry x="370" y="415" as="geometry">
            <mxPoint x="-58" y="250" as="offset" />
          </mxGeometry>
        </mxCell>
        <mxCell id="D6V-iZ1zgxCqqQ2c0elW-50" value="calculate" style="text;html=1;strokeColor=none;fillColor=none;align=center;verticalAlign=middle;whiteSpace=wrap;rounded=0;" vertex="1" parent="1">
          <mxGeometry x="730" y="428" width="60" height="30" as="geometry" />
        </mxCell>
        <mxCell id="D6V-iZ1zgxCqqQ2c0elW-51" value="send" style="edgeLabel;html=1;align=center;verticalAlign=middle;resizable=0;points=[];" vertex="1" connectable="0" parent="1">
          <mxGeometry x="196" y="490" as="geometry">
            <mxPoint x="-16" y="18" as="offset" />
          </mxGeometry>
        </mxCell>
        <mxCell id="D6V-iZ1zgxCqqQ2c0elW-53" value="*" style="edgeLabel;resizable=0;html=1;align=left;verticalAlign=bottom;" connectable="0" vertex="1" parent="1">
          <mxGeometry x="516" y="720" as="geometry">
            <mxPoint x="-140" y="-3" as="offset" />
          </mxGeometry>
        </mxCell>
        <mxCell id="D6V-iZ1zgxCqqQ2c0elW-54" value="1" style="edgeLabel;resizable=0;html=1;align=right;verticalAlign=bottom;" connectable="0" vertex="1" parent="1">
          <mxGeometry x="960" y="443" as="geometry" />
        </mxCell>
        <mxCell id="D6V-iZ1zgxCqqQ2c0elW-55" value="services" style="swimlane;fontStyle=0;childLayout=stackLayout;horizontal=1;startSize=26;fillColor=none;horizontalStack=0;resizeParent=1;resizeParentMax=0;resizeLast=0;collapsible=1;marginBottom=0;" vertex="1" parent="1">
          <mxGeometry x="440" y="620" width="140" height="78" as="geometry">
            <mxRectangle x="520" y="-940" width="100" height="30" as="alternateBounds" />
          </mxGeometry>
        </mxCell>
        <mxCell id="D6V-iZ1zgxCqqQ2c0elW-56" value="type" style="text;strokeColor=none;fillColor=none;align=left;verticalAlign=top;spacingLeft=4;spacingRight=4;overflow=hidden;rotatable=0;points=[[0,0.5],[1,0.5]];portConstraint=eastwest;" vertex="1" parent="D6V-iZ1zgxCqqQ2c0elW-55">
          <mxGeometry y="26" width="140" height="26" as="geometry" />
        </mxCell>
        <mxCell id="D6V-iZ1zgxCqqQ2c0elW-57" value="characteristics" style="text;strokeColor=none;fillColor=none;align=left;verticalAlign=top;spacingLeft=4;spacingRight=4;overflow=hidden;rotatable=0;points=[[0,0.5],[1,0.5]];portConstraint=eastwest;" vertex="1" parent="D6V-iZ1zgxCqqQ2c0elW-55">
          <mxGeometry y="52" width="140" height="26" as="geometry" />
        </mxCell>
        <mxCell id="D6V-iZ1zgxCqqQ2c0elW-58" value="" style="endArrow=none;html=1;startSize=12;startArrow=open;startFill=0;exitX=0.6;exitY=0.955;exitDx=0;exitDy=0;exitPerimeter=0;entryX=0.5;entryY=0;entryDx=0;entryDy=0;" edge="1" parent="1" source="D6V-iZ1zgxCqqQ2c0elW-5" target="D6V-iZ1zgxCqqQ2c0elW-55">
          <mxGeometry relative="1" as="geometry">
            <mxPoint x="530" y="560" as="sourcePoint" />
            <mxPoint x="560" y="835.1410964439655" as="targetPoint" />
          </mxGeometry>
        </mxCell>
        <mxCell id="D6V-iZ1zgxCqqQ2c0elW-60" value="1" style="edgeLabel;resizable=0;html=1;align=right;verticalAlign=bottom;" connectable="0" vertex="1" parent="D6V-iZ1zgxCqqQ2c0elW-58">
          <mxGeometry x="1" relative="1" as="geometry">
            <mxPoint x="-20" y="-110" as="offset" />
          </mxGeometry>
        </mxCell>
        <mxCell id="D6V-iZ1zgxCqqQ2c0elW-61" value="1" style="edgeLabel;resizable=0;html=1;align=right;verticalAlign=bottom;" connectable="0" vertex="1" parent="1">
          <mxGeometry x="480" y="600" as="geometry" />
        </mxCell>
        <mxCell id="D6V-iZ1zgxCqqQ2c0elW-62" value="send" style="edgeLabel;html=1;align=center;verticalAlign=middle;resizable=0;points=[];" vertex="1" connectable="0" parent="1">
          <mxGeometry x="556" y="530" as="geometry">
            <mxPoint x="-16" y="18" as="offset" />
          </mxGeometry>
        </mxCell>
      </root>
    </mxGraphModel>
  </diagram>
</mxfile>
